<svg xmlns="http://www.w3.org/2000/svg" version="1.1" xmlns:xlink="http://www.w3.org/1999/xlink" xmlns:svgjs="http://svgjs.dev/svgjs" width="1000" height="1000" viewBox="0 0 1000 1000"><rect width="1000" height="1000" fill="#000000"></rect><g transform="matrix(0.7,0,0,0.7,149.57575757575756,410.6040885188788)"><svg viewBox="0 0 396 101" data-background-color="#ffffff" preserveAspectRatio="xMidYMid meet" height="255" width="1000" xmlns="http://www.w3.org/2000/svg" xmlns:xlink="http://www.w3.org/1999/xlink"><g id="tight-bounds" transform="matrix(1,0,0,1,0.2400000000000091,0.0825605579452997)"><svg viewBox="0 0 395.52 100.8348788841094" height="100.8348788841094" width="395.52"><g><svg viewBox="0 0 541.290108541868 137.99788262536836" height="100.8348788841094" width="395.52"><g transform="matrix(1,0,0,1,145.77010854186807,19.072066267326605)"><svg viewBox="0 0 395.52 99.85375009071515" height="99.85375009071515" width="395.52"><g><svg viewBox="0 0 395.52 99.85375009071515" height="99.85375009071515" width="395.52"><g><svg viewBox="0 0 395.52 68.94298199279712" height="68.94298199279712" width="395.52"><g transform="matrix(1,0,0,1,0,0)"><svg width="395.52" viewBox="1.75 -35.85 208.23 36.300000000000004" height="68.94298199279712" data-palette-color="#0063db"><path d="M18.5 0.45L18.5 0.45Q13.4 0.45 9.65-1.83 5.9-4.1 3.83-8.03 1.75-11.95 1.75-17L1.75-17Q1.75-20.9 3.03-24.08 4.3-27.25 6.58-29.53 8.85-31.8 11.9-33.02 14.95-34.25 18.5-34.25L18.5-34.25Q23.45-34.25 27.23-32.13 31-30 33.15-26.18 35.3-22.35 35.3-17.25L35.3-17.25Q35.3-13.4 34.1-10.18 32.9-6.95 30.65-4.58 28.4-2.2 25.33-0.88 22.25 0.45 18.5 0.45ZM19.35-2.45L19.35-2.45Q22.25-2.45 24.28-4.23 26.3-6 27.4-9.08 28.5-12.15 28.5-16L28.5-16Q28.5-20.3 27.1-23.8 25.7-27.3 23.25-29.35 20.8-31.4 17.55-31.4L17.55-31.4Q14.95-31.4 12.9-29.83 10.85-28.25 9.7-25.3 8.55-22.35 8.55-18.3L8.55-18.3Q8.55-15.2 9.22-12.35 9.9-9.5 11.28-7.28 12.65-5.05 14.68-3.75 16.7-2.45 19.35-2.45ZM48.65-20.85L42.5-10.55 42.5-15.35Q42.5-16.7 42.27-17.5 42.05-18.3 41.27-18.7 40.5-19.1 38.85-19.2L38.85-19.2Q38.85-19.9 38.95-20.53 39.05-21.15 39.35-21.65L39.35-21.65Q41.6-21.75 43.87-22.25 46.15-22.75 47.35-23.35L47.35-23.35Q47.9-23.15 48.27-22.58 48.65-22 48.65-20.85L48.65-20.85ZM64.05-14.95L64.05-6.9Q64.05-4.35 64.7-3.45 65.35-2.55 66.75-2.55L66.75-2.55Q67-2 67.05-1.38 67.1-0.75 67.1 0.15L67.1 0.15Q66 0.05 64.4 0.03 62.8 0 61.2 0L61.2 0Q60.15 0 58.87 0.03 57.6 0.05 56.45 0.08 55.3 0.1 54.5 0.15L54.5 0.15Q54.5-0.65 54.57-1.33 54.65-2 54.85-2.55L54.85-2.55Q56.4-2.55 57.17-3.53 57.95-4.5 57.95-7.1L57.95-7.1 57.95-13.35Q57.95-16.7 56.82-17.93 55.7-19.15 53.8-19.15L53.8-19.15Q52.55-19.15 51.35-18.28 50.15-17.4 49.4-15.6 48.65-13.8 48.65-11L48.65-11 48.65-6.9Q48.65-4.4 49.35-3.48 50.05-2.55 51.75-2.55L51.75-2.55Q51.95-1.95 52-1.33 52.05-0.7 52.05 0.15L52.05 0.15Q51.35 0.1 50.25 0.08 49.15 0.05 47.92 0.03 46.7 0 45.55 0L45.55 0Q44.5 0 43.2 0.03 41.9 0.05 40.72 0.08 39.55 0.1 38.8 0.15L38.8 0.15Q38.8-0.7 38.87-1.4 38.95-2.1 39.15-2.55L39.15-2.55Q41.1-2.55 41.8-3.48 42.5-4.4 42.5-6.9L42.5-6.9 42.5-15.35 48.65-20.85Q48.65-20.25 48.55-19.48 48.45-18.7 48.2-17.85L48.2-17.85Q48.45-18.35 48.67-18.85 48.9-19.35 49.35-19.8L49.35-19.8Q50.3-20.95 52.12-22.03 53.95-23.1 56.45-23.1L56.45-23.1Q58.45-23.1 60.2-22.3 61.95-21.5 63-19.73 64.05-17.95 64.05-14.95L64.05-14.95ZM82.1 0.45L82.1 0.45Q78.15 0.45 75.62-1.13 73.1-2.7 71.87-5.4 70.65-8.1 70.65-11.35L70.65-11.35Q70.65-14.8 72-17.5 73.35-20.2 75.85-21.78 78.35-23.35 81.75-23.35L81.75-23.35Q85.2-23.35 87.35-21.98 89.5-20.6 90.57-18.2 91.65-15.8 91.8-12.8L91.8-12.8Q91.5-11.55 90.75-10.7L90.75-10.7Q89.65-10.7 87.87-10.7 86.1-10.7 84-10.68 81.9-10.65 79.72-10.55 77.55-10.45 75.6-10.35L75.6-10.35 75.6-13.35 85.6-13.35Q85.6-16.7 84.55-18.63 83.5-20.55 81.5-20.55L81.5-20.55Q80.3-20.55 79.27-19.78 78.25-19 77.62-17.28 77-15.55 77-12.6L77-12.6Q77-10.05 77.62-7.85 78.25-5.65 79.8-4.3 81.35-2.95 84.1-2.95L84.1-2.95Q85.8-2.95 87.45-3.63 89.1-4.3 90.3-5.5L90.3-5.5Q90.75-5.25 91.15-4.6 91.55-3.95 91.55-3.35L91.55-3.35Q89.75-1.35 87.42-0.45 85.1 0.45 82.1 0.45ZM111.69 0.45L111.69 0.45Q106.89 0.45 103.22-1.78 99.54-4 97.47-7.98 95.39-11.95 95.39-17.1L95.39-17.1Q95.39-21.4 96.79-24.6 98.19-27.8 100.59-29.95 102.99-32.1 105.99-33.18 108.99-34.25 112.24-34.25L112.24-34.25Q115.24-34.25 117.94-33.6 120.64-32.95 123.34-31.65L123.34-31.65Q122.99-29.9 122.89-27.93 122.79-25.95 122.79-23.9L122.79-23.9Q122.14-23.6 121.22-23.48 120.29-23.35 119.39-23.35L119.39-23.35Q119.29-26.6 118.44-28.4 117.59-30.2 116.09-30.9 114.59-31.6 112.59-31.6L112.59-31.6Q109.79-31.6 107.82-30.5 105.84-29.4 104.62-27.55 103.39-25.7 102.82-23.35 102.24-21 102.24-18.45L102.24-18.45Q102.24-14.15 103.62-10.65 104.99-7.15 107.62-5.15 110.24-3.15 114.09-3.15L114.09-3.15Q116.24-3.15 118.54-3.85 120.84-4.55 122.89-5.8L122.89-5.8Q123.29-5.5 123.59-4.93 123.89-4.35 123.99-3.85L123.99-3.85Q121.39-1.8 118.49-0.68 115.59 0.45 111.69 0.45ZM127.54 0.15L127.54 0.15Q127.54-0.6 127.59-1.3 127.64-2 127.84-2.55L127.84-2.55Q129.84-2.6 130.54-3.5 131.24-4.4 131.24-6.9L131.24-6.9 131.24-28.35Q131.24-29.45 130.97-30.18 130.69-30.9 129.89-31.28 129.09-31.65 127.49-31.7L127.49-31.7Q127.49-32.4 127.59-33.02 127.69-33.65 127.99-34.15L127.99-34.15Q129.34-34.15 130.97-34.4 132.59-34.65 133.99-35.05 135.39-35.45 136.04-35.85L136.04-35.85Q136.59-35.65 136.97-35.1 137.34-34.55 137.34-33.45L137.34-33.45 137.34-6.9Q137.34-4.4 138.02-3.5 138.69-2.6 140.39-2.55L140.39-2.55Q140.59-2 140.64-1.25 140.69-0.5 140.69 0.15L140.69 0.15Q139.94 0.1 138.87 0.08 137.79 0.05 136.56 0.03 135.34 0 134.14 0L134.14 0Q132.94 0 131.69 0.03 130.44 0.05 129.37 0.08 128.29 0.1 127.54 0.15ZM143.94 0.15L143.94 0.15Q143.94-0.6 144.01-1.3 144.09-2 144.29-2.55L144.29-2.55Q146.29-2.6 146.96-3.5 147.64-4.4 147.64-6.9L147.64-6.9 147.64-15.65Q147.64-16.85 147.39-17.6 147.14-18.35 146.34-18.75 145.54-19.15 143.94-19.2L143.94-19.2Q143.94-19.9 144.04-20.53 144.14-21.15 144.44-21.65L144.44-21.65Q145.74-21.65 147.36-21.9 148.99-22.15 150.39-22.55 151.79-22.95 152.44-23.35L152.44-23.35Q153.04-23.15 153.41-22.6 153.79-22.05 153.79-20.95L153.79-20.95 153.79-6.9Q153.79-4.4 154.44-3.5 155.09-2.6 156.84-2.55L156.84-2.55Q157.04-2 157.09-1.25 157.14-0.5 157.14 0.15L157.14 0.15Q156.34 0.1 155.26 0.08 154.19 0.05 152.99 0.03 151.79 0 150.59 0L150.59 0Q149.39 0 148.14 0.03 146.89 0.05 145.81 0.08 144.74 0.1 143.94 0.15ZM150.19-27.95L150.19-27.95Q148.59-27.95 147.56-28.88 146.54-29.8 146.54-31.2L146.54-31.2Q146.54-32.85 147.64-33.77 148.74-34.7 150.29-34.7L150.29-34.7Q152.04-34.7 153.06-33.77 154.09-32.85 154.09-31.25L154.09-31.25Q154.09-29.9 152.99-28.93 151.89-27.95 150.19-27.95ZM180.34-3.3L180.34-3.3Q179.04-1.5 176.94-0.53 174.84 0.45 171.99 0.45L171.99 0.45Q168.94 0.45 166.36-0.85 163.78-2.15 162.24-4.78 160.69-7.4 160.69-11.35L160.69-11.35Q160.69-14.35 161.94-17.1 163.19-19.85 165.66-21.6 168.14-23.35 171.78-23.35L171.78-23.35Q174.34-23.35 176.34-22.83 178.34-22.3 179.84-21.2L179.84-21.2Q179.59-19.75 179.49-18.32 179.39-16.9 179.39-15.2L179.39-15.2Q178.74-14.9 177.84-14.78 176.94-14.65 176.14-14.65L176.14-14.65Q175.94-17.55 174.74-19.07 173.53-20.6 171.59-20.6L171.59-20.6Q169.39-20.6 168.11-18.32 166.84-16.05 166.84-12.1L166.84-12.1Q166.84-9.8 167.59-7.7 168.34-5.6 169.89-4.28 171.44-2.95 173.78-2.95L173.78-2.95Q175.39-2.95 176.74-3.58 178.09-4.2 179.14-5.3L179.14-5.3Q179.59-5 179.91-4.48 180.24-3.95 180.34-3.3ZM183.33 0.15L183.33 0.15Q183.33-0.6 183.38-1.3 183.43-2 183.63-2.55L183.63-2.55Q185.63-2.6 186.33-3.5 187.03-4.4 187.03-6.9L187.03-6.9 187.03-28.15Q187.03-29.35 186.78-30.1 186.53-30.85 185.73-31.25 184.93-31.65 183.28-31.7L183.28-31.7Q183.28-32.4 183.38-33.02 183.48-33.65 183.78-34.15L183.78-34.15Q185.13-34.15 186.76-34.4 188.38-34.65 189.78-35.05 191.18-35.45 191.83-35.85L191.83-35.85Q192.38-35.65 192.76-35.1 193.13-34.55 193.13-33.45L193.13-33.45 193.13-6.9Q193.13-4.45 193.73-3.53 194.33-2.6 195.88-2.55L195.88-2.55Q196.03-2 196.11-1.25 196.18-0.5 196.18 0.15L196.18 0.15Q194.98 0.05 193.28 0.03 191.58 0 189.83 0L189.83 0Q188.68 0 187.46 0.03 186.23 0.05 185.16 0.08 184.08 0.1 183.33 0.15ZM202.23 0.45L202.23 0.45Q201.13-1.2 199.33-3.53 197.53-5.85 195.51-8.28 193.48-10.7 191.58-12.55L191.58-12.55 191.38-11.4 196.68-16.15Q198.28-17.5 198.86-18.3 199.43-19.1 199.43-19.55L199.43-19.55Q199.43-19.95 199.11-20.15 198.78-20.35 198.03-20.35L198.03-20.35Q197.83-21.05 197.73-21.68 197.63-22.3 197.63-23L197.63-23Q198.58-22.95 199.66-22.93 200.73-22.9 201.83-22.9 202.93-22.9 203.88-22.9L203.88-22.9Q204.93-22.9 206.16-22.93 207.38-22.95 208.58-23L208.58-23Q208.58-22.3 208.51-21.63 208.43-20.95 208.18-20.35L208.18-20.35Q207.08-20.3 206.11-20 205.13-19.7 204.16-19.07 203.18-18.45 201.93-17.3L201.93-17.3 197.18-12.95 196.83-15.05Q198.93-13.1 200.96-10.88 202.98-8.65 205.38-5.55L205.38-5.55Q206.23-4.45 206.88-3.85 207.53-3.25 208.26-3 208.98-2.75 209.98-2.65L209.98-2.65Q209.98-1.9 209.91-1.23 209.83-0.55 209.58 0L209.58 0Q208.38 0 207.08 0.05 205.78 0.1 204.56 0.18 203.33 0.25 202.23 0.45Z" opacity="1" transform="matrix(1,0,0,1,0,0)" fill="#ffffff" class="undefined-text-0" data-fill-palette-color="primary" id="text-0"></path></svg></g></svg></g><g transform="matrix(1,0,0,1,0,85.21876540972869)"><svg viewBox="0 0 232.209792 14.634984680986474" height="14.634984680986474" width="232.209792"><g transform="matrix(1,0,0,1,0,0)"><svg width="232.209792" viewBox="2.15 -34.85 565.6 35.65" height="14.634984680986474" data-palette-color="#0063db"><path d="M15.35 0.8Q11.6 0.8 8.05-1.07 4.5-2.95 2.15-6.15L2.15-6.15 5.2-8.85Q7-6 9.8-4.33 12.6-2.65 15.85-2.65L15.85-2.65Q19.4-2.65 21.25-4.23 23.1-5.8 23.1-8.5L23.1-8.5Q23.1-11.45 21.13-13.03 19.15-14.6 14.85-15.8L14.85-15.8Q4.05-18.45 4.05-25.6L4.05-25.6Q4.05-30.05 6.95-32.45 9.85-34.85 15-34.85L15-34.85Q18.75-34.85 21.73-33.45 24.7-32.05 27.05-29.15L27.05-29.15 24.1-26.65Q22.3-29.1 20.15-30.28 18-31.45 15-31.45L15-31.45Q11.85-31.45 9.85-29.98 7.85-28.5 7.85-25.95L7.85-25.95Q7.85-23.35 9.7-21.83 11.55-20.3 15.95-19.25L15.95-19.25Q21.15-17.85 24.03-15.4 26.9-12.95 26.9-8.5L26.9-8.5Q26.9-5.75 25.5-3.65 24.1-1.55 21.48-0.38 18.85 0.8 15.35 0.8L15.35 0.8ZM45.75 0.8Q39.45 0.8 36.3-2.63 33.15-6.05 33.15-12.65L33.15-12.65 33.15-34.1 36.9-34.1 36.9-12.65Q36.9-2.6 45.75-2.6L45.75-2.6Q49.75-2.6 52.07-5.2 54.4-7.8 54.4-12.65L54.4-12.65 54.4-34.1 58.15-34.1 58.15-12.65Q58.15-6.15 54.87-2.68 51.6 0.8 45.75 0.8L45.75 0.8ZM82.65-18.35Q85.59-17.6 87.2-15.45 88.8-13.3 88.8-9.8L88.8-9.8Q88.8-5.25 86.05-2.63 83.3 0 78.5 0L78.5 0 66.09 0 66.09-34.1 77.34-34.1Q81.9-34.1 84.5-31.73 87.09-29.35 87.09-25.4L87.09-25.4Q87.09-22.85 85.95-21.03 84.8-19.2 82.65-18.35L82.65-18.35ZM69.84-30.95L69.84-19.55 77.8-19.55Q83.15-19.55 83.15-25.4L83.15-25.4Q83.15-28.05 81.59-29.5 80.05-30.95 77.3-30.95L77.3-30.95 69.84-30.95ZM78-3.1Q81.2-3.1 83.02-4.9 84.84-6.7 84.84-9.8L84.84-9.8Q84.84-12.9 83.02-14.68 81.2-16.45 78-16.45L78-16.45 69.84-16.45 69.84-3.1 78-3.1ZM106.19 0.8Q102.44 0.8 98.89-1.07 95.34-2.95 92.99-6.15L92.99-6.15 96.04-8.85Q97.84-6 100.64-4.33 103.44-2.65 106.69-2.65L106.69-2.65Q110.24-2.65 112.09-4.23 113.94-5.8 113.94-8.5L113.94-8.5Q113.94-11.45 111.97-13.03 109.99-14.6 105.69-15.8L105.69-15.8Q94.89-18.45 94.89-25.6L94.89-25.6Q94.89-30.05 97.79-32.45 100.69-34.85 105.84-34.85L105.84-34.85Q109.59-34.85 112.57-33.45 115.54-32.05 117.89-29.15L117.89-29.15 114.94-26.65Q113.14-29.1 110.99-30.28 108.84-31.45 105.84-31.45L105.84-31.45Q102.69-31.45 100.69-29.98 98.69-28.5 98.69-25.95L98.69-25.95Q98.69-23.35 100.54-21.83 102.39-20.3 106.79-19.25L106.79-19.25Q111.99-17.85 114.87-15.4 117.74-12.95 117.74-8.5L117.74-8.5Q117.74-5.75 116.34-3.65 114.94-1.55 112.32-0.38 109.69 0.8 106.19 0.8L106.19 0.8ZM136.64 0.8Q132.34 0.8 129.22-1.33 126.09-3.45 124.42-7.43 122.74-11.4 122.74-16.95L122.74-16.95Q122.74-22.55 124.37-26.58 125.99-30.6 129.02-32.73 132.04-34.85 136.19-34.85L136.19-34.85Q140.44-34.85 143.47-32.98 146.49-31.1 148.19-27.7L148.19-27.7 145.19-25.95Q143.59-28.9 141.44-30.18 139.29-31.45 136.19-31.45L136.19-31.45Q131.74-31.45 129.22-27.63 126.69-23.8 126.69-17L126.69-17Q126.69-12.55 127.84-9.3 128.99-6.05 131.14-4.33 133.29-2.6 136.14-2.6L136.14-2.6Q139.69-2.6 141.67-4.17 143.64-5.75 145.34-9.1L145.34-9.1 148.49-7.2Q146.69-3.3 143.72-1.25 140.74 0.8 136.64 0.8L136.64 0.8ZM177.29 0L173.34 0 164.69-15.05 157.94-15.05 157.94 0 154.19 0 154.19-34.1 165.59-34.1Q168.69-34.1 171.04-32.9 173.39-31.7 174.64-29.53 175.89-27.35 175.89-24.55L175.89-24.55Q175.89-21.15 173.84-18.73 171.79-16.3 168.39-15.45L168.39-15.45 177.29 0ZM157.94-31L157.94-18.15 165.09-18.15Q168.39-18.15 170.16-19.9 171.94-21.65 171.94-24.55L171.94-24.55Q171.94-27.45 170.16-29.23 168.39-31 165.09-31L165.09-31 157.94-31ZM192.34 0L181.99 0 181.99-3.3 185.29-3.3 185.29-30.8 181.99-30.8 181.99-34.1 192.34-34.1 192.34-30.8 189.04-30.8 189.04-3.3 192.34-3.3 192.34 0ZM199.08 0L199.08-34.1 210.48-34.1Q215.08-34.1 217.83-31.3 220.58-28.5 220.58-23.55L220.58-23.55Q220.58-18.65 217.71-15.85 214.83-13.05 210.08-13.05L210.08-13.05 202.83-13.05 202.83 0 199.08 0ZM202.83-16.15L209.98-16.15Q213.33-16.15 215.08-18.03 216.83-19.9 216.83-23.55L216.83-23.55Q216.83-27.2 215.08-29.1 213.33-31 209.98-31L209.98-31 202.83-31 202.83-16.15ZM237.03 0L233.33 0 233.33-31 222.58-31 222.58-34.1 247.78-34.1 247.78-31 237.03-31 237.03 0ZM261.63 0L251.28 0 251.28-3.3 254.58-3.3 254.58-30.8 251.28-30.8 251.28-34.1 261.63-34.1 261.63-30.8 258.33-30.8 258.33-3.3 261.63-3.3 261.63 0ZM281.78 0.8Q277.53 0.8 274.2-1.48 270.88-3.75 269-7.8 267.13-11.85 267.13-17L267.13-17Q267.13-22.15 269-26.23 270.88-30.3 274.2-32.58 277.53-34.85 281.78-34.85L281.78-34.85Q286.03-34.85 289.35-32.58 292.68-30.3 294.55-26.23 296.43-22.15 296.43-16.95L296.43-16.95Q296.43-11.8 294.55-7.78 292.68-3.75 289.35-1.48 286.03 0.8 281.78 0.8L281.78 0.8ZM281.78-2.65Q284.88-2.65 287.35-4.48 289.83-6.3 291.23-9.58 292.63-12.85 292.63-17L292.63-17Q292.63-21.15 291.23-24.45 289.83-27.75 287.35-29.6 284.88-31.45 281.78-31.45L281.78-31.45Q278.68-31.45 276.2-29.6 273.73-27.75 272.33-24.45 270.93-21.15 270.93-17L270.93-17Q270.93-12.85 272.33-9.58 273.73-6.3 276.2-4.48 278.68-2.65 281.78-2.65L281.78-2.65ZM306.92 0L303.17 0 303.17-34.1 307.17-34.1 324.52-5.65 324.52-34.1 328.27-34.1 328.27 0 324.27 0 306.92-28.35 306.92 0ZM373.97-4.2L386.47-34.1 390.67-34.1 390.67 0 386.97 0 386.97-27.25 375.57 0 372.07 0 361.17-27.15 361.17 0 357.42 0 357.42-34.1 362.02-34.1 373.97-4.2ZM423.32 0L419.82 0 416.32-9.55 402.17-9.55 399.02 0 395.27 0 407.37-34.1 410.87-34.1 423.32 0ZM409.07-29.2L403.32-12.65 415.17-12.65 409.07-29.2ZM431.66 0L427.91 0 427.91-34.1 431.91-34.1 449.26-5.65 449.26-34.1 453.01-34.1 453.01 0 449.01 0 431.66-28.35 431.66 0ZM485.66 0L482.16 0 478.66-9.55 464.51-9.55 461.36 0 457.61 0 469.71-34.1 473.21-34.1 485.66 0ZM471.41-29.2L465.66-12.65 477.51-12.65 471.41-29.2ZM500.61 0.8Q496.31 0.8 493.18-1.33 490.06-3.45 488.38-7.43 486.71-11.4 486.71-16.95L486.71-16.95Q486.71-22.55 488.38-26.58 490.06-30.6 493.18-32.73 496.31-34.85 500.61-34.85L500.61-34.85Q504.56-34.85 507.43-33.08 510.31-31.3 512.36-27.85L512.36-27.85 509.41-25.75Q506.26-31.45 500.61-31.45L500.61-31.45Q495.91-31.45 493.28-27.63 490.66-23.8 490.66-17L490.66-17Q490.66-10.25 493.31-6.43 495.96-2.6 500.61-2.6L500.61-2.6Q503.21-2.6 505.28-3.85 507.36-5.1 508.56-7.55 509.76-10 509.76-13.55L509.76-13.55 501.71-13.55 501.71-16.65 513.46-16.65 513.46-13.55Q513.46-8.9 511.81-5.68 510.16-2.45 507.23-0.83 504.31 0.8 500.61 0.8L500.61 0.8ZM538.76 0L519.51 0 519.51-34.1 538.61-34.1 538.61-30.95 523.26-30.95 523.26-19.05 535.26-19.05 535.26-16 523.26-16 523.26-3.1 538.76-3.1 538.76 0ZM567.75 0L563.8 0 555.15-15.05 548.4-15.05 548.4 0 544.65 0 544.65-34.1 556.05-34.1Q559.15-34.1 561.5-32.9 563.85-31.7 565.1-29.53 566.35-27.35 566.35-24.55L566.35-24.55Q566.35-21.15 564.3-18.73 562.25-16.3 558.85-15.45L558.85-15.45 567.75 0ZM548.4-31L548.4-18.15 555.55-18.15Q558.85-18.15 560.63-19.9 562.4-21.65 562.4-24.55L562.4-24.55Q562.4-27.45 560.63-29.23 558.85-31 555.55-31L555.55-31 548.4-31Z" opacity="1" transform="matrix(1,0,0,1,0,0)" fill="#ffffff" class="undefined-text-1" data-fill-palette-color="secondary" id="text-1"></path></svg></g></svg></g></svg></g></svg></g><g><svg viewBox="0 0 129.4943251249365 137.99788262536836" height="137.99788262536836" width="129.4943251249365"><g><svg xmlns="http://www.w3.org/2000/svg" xmlns:xlink="http://www.w3.org/1999/xlink" version="1.1" x="0" y="0" viewBox="7.774860230474047 5.0003661049397845 84.45313976952592 89.99895908963356" enable-background="new 0 0 100 100" xml:space="preserve" height="137.99788262536836" width="129.4943251249365" class="icon-icon-0" data-fill-palette-color="accent" id="icon-0"><path fill="#ffffff" d="M41.474 27.103c-4.194-0.083-8.307-0.515-12.427-1.308 0.105-0.421 0.215-0.841 0.332-1.26 0.077-0.276 0.155-0.551 0.237-0.825 4.735 0.899 9.44 1.31 14.259 1.246" data-fill-palette-color="accent"></path><path fill="#ffffff" d="M48.215 53.36c-0.331 0.223-0.654 0.455-0.97 0.7-0.225-0.235-0.445-0.474-0.663-0.715-0.027-0.029-0.054-0.06-0.081-0.09C47.073 53.284 47.645 53.318 48.215 53.36z" data-fill-palette-color="accent"></path><path fill="#ffffff" d="M75.888 39.066c-0.105-3.245-0.656-6.312-1.687-9.391 0.168 0.039 0.336 0.077 0.505 0.114 0.417 0.092 0.836 0.18 1.255 0.262 0.219 0.042 0.438 0.083 0.656 0.123 2.807 9.489 1.483 19.721-3.645 28.183-0.524-0.524-1.048-1.048-1.572-1.572 2.767-4.734 4.309-10.083 4.487-15.563" data-fill-palette-color="accent"></path><path fill="#ffffff" d="M49.27 26.842c0.013-0.005 0.026-0.011 0.04-0.016 0.448-0.178 0.905-0.331 1.37-0.461 0.383-0.107 0.771-0.199 1.161-0.275 0.41-0.081 0.823-0.145 1.237-0.195 0.541-0.065 1.085-0.106 1.63-0.126 0.575-0.021 1.15-0.019 1.726 0.002 0.117 0.004 0.234 0.01 0.352 0.016 0.001 0.003 0.002 0.006 0.003 0.009C54.296 26.275 51.797 26.623 49.27 26.842z" data-fill-palette-color="accent"></path><path fill="#ffffff" d="M75.905 41.221c-4.735 0-9.471 0-14.206 0-0.01 0.662-0.03 1.323-0.061 1.984-0.048 1.049-0.12 2.096-0.218 3.141-0.099 1.063-0.225 2.125-0.377 3.182-0.056 0.387-0.115 0.772-0.179 1.158-0.711-0.126-1.423-0.205-2.144-0.241 0.508-3.063 0.771-6.122 0.823-9.224-6.308 0-12.615 0-18.922 0-0.009-0.107-0.016-0.213-0.023-0.32-0.019-0.326-0.028-0.653-0.025-0.979 0.002-0.285 0.014-0.57 0.034-0.855 6.312 0 12.624 0 18.936 0-0.074-4.482-0.573-8.834-1.63-13.199 0.101 0.009 0.202 0.019 0.303 0.029 0.305 0.031 0.609 0.066 0.913 0.105 0.332 0.043 0.664 0.092 0.996 0.144 0.022 0.004 0.046 0.008 0.069 0.011 0.106 0.473 0.207 0.947 0.302 1.422 0.211 1.055 0.393 2.115 0.546 3.18 0.152 1.058 0.278 2.119 0.377 3.182 0.098 1.045 0.17 2.092 0.218 3.141 0.03 0.661 0.051 1.323 0.061 1.985 4.735 0 9.471 0 14.206 0" data-fill-palette-color="accent"></path><path fill="#ffffff" d="M29.616 56.575c-0.082-0.274-0.16-0.549-0.237-0.825-0.116-0.418-0.227-0.838-0.332-1.26 3.936-0.757 7.869-1.186 11.875-1.294 0.017 0.023 0.034 0.047 0.051 0.071 0.371 0.513 0.757 1.015 1.156 1.505 0.151 0.186 0.304 0.369 0.458 0.552C38.208 55.345 33.919 55.759 29.616 56.575z" data-fill-palette-color="accent"></path><path fill="#ffffff" d="M45.462 5.093c-12.748-0.926-24.993 5.143-31.977 15.848C6.501 31.646 5.88 45.298 11.862 56.593c5.983 11.295 17.627 18.451 30.406 18.687-0.36-0.745-0.663-1.506-0.913-2.294-3.145-0.589-5.687-2.836-7.518-5.202-1.886-2.437-3.318-5.362-4.369-8.225-2.113-5.755-3.078-12.258-3.178-18.338 3.337 0 6.674 0 10.011 0-0.02-0.309-0.031-0.617-0.036-0.926-0.005-0.41 0.002-0.819 0.024-1.229-3.333 0-6.667 0-10 0 0.081-4.936 0.727-10.052 2.051-14.823 1.259-4.538 3.408-9.69 6.773-13.234 3.789-3.989 8.65-5.311 13.422-1.915 3.996 2.844 6.592 8.037 8.093 12.371 0.498 0.019 0.996 0.05 1.492 0.093 0.28 0.024 0.56 0.051 0.839 0.082-0.023-0.075-0.048-0.149-0.072-0.224-0.162-0.49-0.332-0.978-0.511-1.463-0.175-0.477-0.358-0.95-0.551-1.419-0.188-0.461-0.386-0.918-0.592-1.371-0.201-0.443-0.411-0.882-0.63-1.317-0.214-0.424-0.437-0.843-0.668-1.257-0.226-0.403-0.46-0.801-0.704-1.193-0.236-0.381-0.482-0.757-0.737-1.126-0.247-0.357-0.503-0.709-0.769-1.054-0.258-0.333-0.523-0.661-0.8-0.979-0.267-0.309-0.542-0.609-0.827-0.901-0.275-0.283-0.56-0.557-0.853-0.821-0.154-0.14-0.312-0.276-0.471-0.41 7.261 1.781 13.701 5.977 18.267 11.897-2.131 0.839-4.288 1.571-6.489 2.202 0.357 0.071 0.714 0.147 1.069 0.226 0.264 0.059 0.525 0.12 0.788 0.182 0.405 0.097 0.81 0.197 1.213 0.301 0.338 0.087 0.676 0.176 1.013 0.267 1.247-0.425 2.479-0.883 3.702-1.375 0.623 0.933 1.196 1.892 1.722 2.884 0.448 0.122 0.897 0.241 1.348 0.356 0.468 0.12 0.937 0.236 1.406 0.348C69.451 13.792 58.21 6.018 45.462 5.093zM26.947 58.869c0.162 0.49 0.332 0.978 0.51 1.463 0.175 0.477 0.359 0.949 0.551 1.419 0.188 0.461 0.386 0.918 0.592 1.371 0.201 0.443 0.411 0.883 0.63 1.317 0.214 0.424 0.436 0.843 0.668 1.257 0.226 0.403 0.459 0.802 0.703 1.193 0.237 0.382 0.482 0.757 0.737 1.126 0.248 0.357 0.504 0.71 0.77 1.054 0.257 0.334 0.523 0.661 0.799 0.979 0.267 0.309 0.542 0.609 0.827 0.901 0.275 0.282 0.56 0.557 0.853 0.821 0.154 0.139 0.312 0.275 0.471 0.409-7.261-1.781-13.702-5.976-18.266-11.897 2.815-1.108 5.673-2.029 8.606-2.773-0.116-0.4-0.228-0.803-0.334-1.205-0.077-0.292-0.152-0.584-0.224-0.876-3.19 0.81-6.291 1.822-9.344 3.052-3.425-5.123-5.348-11.101-5.549-17.26 4.729 0 9.459 0 14.188 0 0.011 0.662 0.031 1.323 0.061 1.984 0.047 1.049 0.12 2.096 0.217 3.141 0.099 1.063 0.225 2.125 0.377 3.182 0.153 1.064 0.335 2.125 0.545 3.179 0.209 1.051 0.448 2.095 0.718 3.131C26.321 56.857 26.617 57.868 26.947 58.869zM34.587 8.515c-0.293 0.264-0.578 0.538-0.853 0.821-0.285 0.292-0.561 0.593-0.827 0.901-0.275 0.318-0.542 0.646-0.799 0.979-0.266 0.344-0.522 0.696-0.77 1.054-0.255 0.369-0.5 0.745-0.737 1.126-0.244 0.392-0.478 0.791-0.703 1.193-0.232 0.415-0.454 0.834-0.668 1.257-0.219 0.435-0.429 0.874-0.63 1.317-0.206 0.453-0.403 0.91-0.592 1.371-0.388 0.948-0.74 1.91-1.061 2.882-0.33 1-0.626 2.012-0.892 3.031-0.27 1.036-0.509 2.081-0.718 3.13-0.21 1.055-0.392 2.115-0.545 3.18-0.153 1.058-0.278 2.119-0.377 3.182-0.097 1.045-0.17 2.092-0.217 3.141-0.03 0.661-0.05 1.323-0.061 1.985-4.729 0-9.459 0-14.188 0 0.201-6.159 2.124-12.138 5.549-17.26 3.053 1.229 6.154 2.242 9.344 3.052 0.137-0.554 0.282-1.105 0.437-1.654 0.04-0.143 0.081-0.285 0.122-0.428-2.934-0.744-5.791-1.664-8.606-2.773 4.564-5.921 11.005-10.116 18.266-11.897C34.899 8.239 34.742 8.375 34.587 8.515z" data-fill-palette-color="accent"></path><path fill="#ffffff" d="M90.792 24.432c-0.327 0.292-0.671 0.567-1.029 0.821-0.344 0.244-0.701 0.469-1.07 0.673-0.36 0.199-0.732 0.379-1.112 0.538-0.378 0.158-0.765 0.296-1.156 0.415-0.395 0.119-0.796 0.218-1.199 0.299-0.348 0.069-0.697 0.125-1.048 0.169-0.421 0.053-0.844 0.087-1.268 0.107-0.434 0.021-0.868 0.025-1.302 0.016-0.447-0.009-0.895-0.032-1.341-0.068-0.457-0.036-0.913-0.084-1.368-0.143-0.465-0.06-0.928-0.13-1.39-0.209-0.471-0.081-0.94-0.17-1.408-0.267-0.475-0.098-0.948-0.203-1.42-0.313-0.478-0.112-0.953-0.229-1.429-0.351s-0.95-0.247-1.425-0.375c-0.475-0.129-0.949-0.26-1.424-0.393-0.67-0.188-1.341-0.377-2.011-0.566-0.471-0.132-0.941-0.264-1.412-0.393-0.466-0.127-0.932-0.253-1.398-0.375-0.459-0.12-0.919-0.236-1.381-0.346-0.291-0.069-0.584-0.137-0.877-0.202-0.447-0.099-0.897-0.192-1.348-0.279-0.861-0.165-1.729-0.305-2.599-0.415-0.794-0.1-1.592-0.173-2.391-0.214-0.792-0.042-1.585-0.051-2.378-0.022-0.384 0.014-0.769 0.037-1.151 0.069-0.375 0.032-0.75 0.073-1.123 0.125-0.367 0.051-0.732 0.111-1.097 0.182-0.357 0.07-0.714 0.15-1.067 0.241-0.35 0.09-0.695 0.19-1.039 0.301-0.338 0.109-0.673 0.229-1.004 0.361-0.328 0.13-0.653 0.271-0.973 0.422-0.321 0.152-0.637 0.315-0.947 0.488-0.311 0.174-0.615 0.358-0.914 0.553-0.3 0.196-0.593 0.402-0.88 0.617-0.289 0.218-0.57 0.445-0.845 0.682-0.278 0.24-0.548 0.49-0.81 0.748-0.267 0.262-0.524 0.534-0.774 0.813-0.253 0.283-0.499 0.575-0.734 0.874-0.49 0.621-0.941 1.272-1.349 1.949-0.427 0.709-0.806 1.446-1.133 2.206-0.168 0.392-0.323 0.79-0.463 1.192-0.143 0.411-0.271 0.828-0.382 1.248-0.114 0.43-0.212 0.864-0.293 1.301-0.083 0.445-0.147 0.894-0.194 1.344-0.048 0.462-0.078 0.926-0.088 1.39-0.011 0.48-0.002 0.961 0.026 1.44 0.029 0.495 0.08 0.988 0.15 1.479 0.073 0.508 0.167 1.014 0.281 1.515 0.119 0.521 0.259 1.036 0.42 1.545 0.167 0.532 0.357 1.057 0.566 1.573 0.219 0.542 0.459 1.074 0.719 1.598 0.271 0.547 0.564 1.084 0.874 1.61 0.327 0.555 0.675 1.097 1.04 1.627 0.387 0.564 0.794 1.115 1.218 1.653 0.448 0.569 0.916 1.124 1.398 1.666 0.51 0.571 1.037 1.127 1.579 1.669 0.008 0.008 0.017 0.017 0.025 0.025-5.634 6.436-5.312 16.137 0.736 22.185 2.396 2.396 4.792 4.792 7.188 7.188 1.461 1.461 2.921 2.921 4.382 4.382 0.462 0.462 0.934 0.909 1.448 1.314 0.527 0.415 1.079 0.786 1.663 1.119 2.98 1.698 6.495 2.195 9.83 1.39 1.727-0.418 3.231-1.106 4.676-2.14 0.657-0.471 1.254-0.998 1.824-1.568 0.607-0.607 1.215-1.216 1.823-1.823 0.607-0.607 1.215-1.215 1.823-1.823 0.57-0.57 1.098-1.168 1.568-1.825 1.034-1.444 1.723-2.95 2.14-4.677 0.805-3.334 0.308-6.848-1.39-9.827-0.333-0.584-0.704-1.135-1.119-1.663-0.405-0.515-0.853-0.986-1.314-1.448-1.46-1.46-2.92-2.92-4.381-4.38-2.396-2.396-4.793-4.793-7.189-7.19-6.048-6.046-15.749-6.369-22.185-0.736-0.009-0.008-0.017-0.017-0.025-0.025-0.513-0.513-1.012-1.038-1.494-1.579-0.453-0.509-0.893-1.03-1.314-1.565-0.394-0.501-0.773-1.014-1.134-1.539-0.337-0.49-0.657-0.991-0.96-1.503-0.284-0.481-0.551-0.973-0.799-1.473-0.235-0.474-0.453-0.957-0.652-1.448-0.188-0.464-0.358-0.936-0.508-1.413-0.143-0.454-0.268-0.914-0.374-1.377-0.101-0.443-0.185-0.89-0.249-1.34-0.062-0.432-0.105-0.866-0.131-1.302-0.025-0.42-0.033-0.842-0.023-1.263 0.009-0.407 0.035-0.813 0.077-1.217 0.042-0.394 0.098-0.786 0.17-1.176 0.071-0.383 0.157-0.763 0.257-1.139 0.194-0.731 0.443-1.447 0.743-2.142 0.289-0.67 0.624-1.321 1-1.946 0.361-0.6 0.761-1.176 1.194-1.726 0.208-0.264 0.425-0.522 0.649-0.772 0.219-0.245 0.445-0.483 0.68-0.714 0.229-0.225 0.464-0.442 0.706-0.652 0.238-0.205 0.482-0.403 0.733-0.592 0.247-0.186 0.501-0.364 0.761-0.533 0.257-0.168 0.521-0.327 0.788-0.477 0.268-0.149 0.541-0.291 0.818-0.422s0.559-0.253 0.844-0.366c0.288-0.114 0.58-0.219 0.875-0.314 0.301-0.098 0.604-0.186 0.911-0.264 0.632-0.163 1.274-0.286 1.922-0.376 0.336-0.046 0.673-0.083 1.012-0.112 0.348-0.03 0.696-0.05 1.045-0.063 0.729-0.026 1.46-0.017 2.189 0.021 0.746 0.039 1.492 0.108 2.234 0.201 0.824 0.104 1.645 0.237 2.461 0.393 0.43 0.083 0.859 0.171 1.287 0.266 0.281 0.063 0.562 0.127 0.842 0.194 0.447 0.107 0.894 0.219 1.339 0.335 0.458 0.119 0.915 0.242 1.371 0.367 0.467 0.128 0.933 0.258 1.399 0.39 0.671 0.188 1.342 0.379 2.014 0.566 0.48 0.134 0.96 0.267 1.441 0.397 0.971 0.263 1.945 0.515 2.925 0.744 0.49 0.115 0.982 0.224 1.477 0.326 0.491 0.101 0.984 0.195 1.479 0.28 0.491 0.084 0.984 0.159 1.479 0.223 0.49 0.063 0.981 0.115 1.474 0.154 0.488 0.039 0.977 0.064 1.466 0.074 0.483 0.01 0.966 0.005 1.448-0.018 0.479-0.022 0.957-0.062 1.433-0.121 0.403-0.05 0.805-0.115 1.204-0.195 0.471-0.094 0.938-0.21 1.398-0.349 0.463-0.14 0.92-0.303 1.366-0.489 0.452-0.189 0.894-0.403 1.323-0.64 0.438-0.243 0.864-0.511 1.273-0.801 0.424-0.3 0.83-0.625 1.217-0.97C91.748 25.504 91.271 24.968 90.792 24.432zM75.057 65.012c1.477 1.477 2.954 2.954 4.431 4.431 0.652 0.652 1.236 1.341 1.731 2.125 1.626 2.577 2.145 5.699 1.438 8.663-0.348 1.458-0.926 2.728-1.796 3.947-0.402 0.563-0.854 1.073-1.342 1.561-0.61 0.61-1.22 1.22-1.83 1.83-0.609 0.61-1.22 1.22-1.83 1.83-0.488 0.488-0.998 0.94-1.561 1.342-1.221 0.871-2.491 1.449-3.949 1.796-2.964 0.706-6.084 0.188-8.66-1.438-0.784-0.495-1.473-1.078-2.125-1.731-1.478-1.477-2.954-2.954-4.432-4.431-2.125-2.125-4.249-4.25-6.374-6.375 9.449-3.066 16.857-10.475 19.924-19.925C70.807 60.762 72.932 62.887 75.057 65.012zM47.17 58.573c2.46 2.46 4.92 4.92 7.381 7.381 0.508-0.508 1.016-1.017 1.523-1.524-2.46-2.46-4.921-4.92-7.381-7.38 5.24-4.494 12.965-4.529 18.245-0.083-2.735 9.606-10.244 17.115-19.852 19.852C42.642 71.537 42.676 63.813 47.17 58.573z" data-fill-palette-color="accent"></path></svg></g></svg></g></svg></g><defs></defs></svg><rect width="395.52" height="100.8348788841094" fill="none" stroke="none" visibility="hidden"></rect></g></svg></g></svg>